<mxfile host="drawio-plugin" modified="2022-11-23T04:37:06.730Z" agent="5.0 (Windows NT 6.2; Win64; x64) AppleWebKit/537.36 (KHTML, like Gecko) Chrome/98.0.4758.102 Safari/537.36" etag="LiudqfmvecNVdijkY6ft" version="15.5.4" type="embed"><diagram id="Jll56fRVlKPLEn0SkgT6" name="Page-1"><mxGraphModel dx="728" dy="388" grid="1" gridSize="10" guides="1" tooltips="1" connect="1" arrows="1" fold="1" page="1" pageScale="1" pageWidth="850" pageHeight="1100" math="0" shadow="0"><root><mxCell id="0"/><mxCell id="1" parent="0"/><mxCell id="2" value=":ScrabbleModel" style="shape=umlLifeline;perimeter=lifelinePerimeter;whiteSpace=wrap;html=1;container=1;collapsible=0;recursiveResize=0;outlineConnect=0;" parent="1" vertex="1"><mxGeometry x="140" y="20" width="100" height="730" as="geometry"/></mxCell><mxCell id="5" value="" style="html=1;points=[];perimeter=orthogonalPerimeter;" parent="2" vertex="1"><mxGeometry x="45" y="60" width="10" height="650" as="geometry"/></mxCell><mxCell id="6" value="" style="html=1;points=[];perimeter=orthogonalPerimeter;" parent="2" vertex="1"><mxGeometry x="51" y="90" width="10" height="580" as="geometry"/></mxCell><mxCell id="7" value="handlePlace(placeClickEvent)" style="edgeStyle=orthogonalEdgeStyle;html=1;align=left;spacingLeft=2;endArrow=block;rounded=0;entryX=1;entryY=0;" parent="2" target="6" edge="1"><mxGeometry relative="1" as="geometry"><mxPoint x="56" y="70" as="sourcePoint"/><Array as="points"><mxPoint x="80" y="70"/></Array></mxGeometry></mxCell><mxCell id="49" value="break" style="shape=umlFrame;whiteSpace=wrap;html=1;width=40;height=20;" vertex="1" parent="2"><mxGeometry x="-50.5" y="431" width="360.5" height="60" as="geometry"/></mxCell><mxCell id="53" value="[drawPile &lt;br&gt;is empty]" style="text;html=1;align=center;verticalAlign=middle;resizable=0;points=[];autosize=1;strokeColor=none;fillColor=none;fontColor=default;" vertex="1" parent="2"><mxGeometry x="-47" y="452" width="60" height="30" as="geometry"/></mxCell><mxCell id="51" value="ref" style="shape=umlFrame;whiteSpace=wrap;html=1;labelBackgroundColor=default;fillColor=default;shadow=0;swimlaneFillColor=#7A7A7A;" vertex="1" parent="2"><mxGeometry x="23" y="435" width="277" height="30" as="geometry"/></mxCell><mxCell id="3" value="HandlePlaceEvent" style="ellipse;whiteSpace=wrap;html=1;" parent="1" vertex="1"><mxGeometry width="110" height="50" as="geometry"/></mxCell><mxCell id="4" value="SController" style="shape=umlActor;verticalLabelPosition=bottom;verticalAlign=top;html=1;" parent="1" vertex="1"><mxGeometry x="20" y="60" width="30" height="60" as="geometry"/></mxCell><mxCell id="10" value="placeClickEvent" style="html=1;verticalAlign=bottom;startArrow=oval;endArrow=block;startSize=8;rounded=0;" parent="1" target="2" edge="1"><mxGeometry relative="1" as="geometry"><mxPoint x="50" y="80" as="sourcePoint"/><mxPoint x="110" y="80" as="targetPoint"/></mxGeometry></mxCell><mxCell id="11" value="opt" style="shape=umlFrame;whiteSpace=wrap;html=1;width=40;height=20;" parent="1" vertex="1"><mxGeometry x="116" y="120" width="300" height="70" as="geometry"/></mxCell><mxCell id="12" value="[usedTileIsBlank]" style="text;html=1;align=center;verticalAlign=middle;resizable=0;points=[];autosize=1;strokeColor=none;fillColor=none;" parent="1" vertex="1"><mxGeometry x="193" y="130" width="110" height="20" as="geometry"/></mxCell><mxCell id="13" value="ref" style="shape=umlFrame;whiteSpace=wrap;html=1;labelBackgroundColor=default;fillColor=default;shadow=0;swimlaneFillColor=#7A7A7A;" parent="1" vertex="1"><mxGeometry x="123" y="150" width="286" height="30" as="geometry"/></mxCell><mxCell id="18" value="alt" style="shape=umlFrame;whiteSpace=wrap;html=1;width=40;height=20;" parent="1" vertex="1"><mxGeometry x="79" y="240" width="381" height="280" as="geometry"/></mxCell><mxCell id="14" value="SetBlankTileLetter" style="text;html=1;align=center;verticalAlign=middle;resizable=0;points=[];autosize=1;strokeColor=none;fillColor=none;fontColor=default;" parent="1" vertex="1"><mxGeometry x="235" y="155" width="110" height="20" as="geometry"/></mxCell><mxCell id="17" value="BoardValidation" style="text;html=1;align=center;verticalAlign=middle;resizable=0;points=[];autosize=1;strokeColor=none;fillColor=none;fontColor=default;" parent="1" vertex="1"><mxGeometry x="235" y="203" width="100" height="20" as="geometry"/></mxCell><mxCell id="19" value="[validStatus &lt;br&gt;== Success]" style="text;html=1;align=center;verticalAlign=middle;resizable=0;points=[];autosize=1;strokeColor=none;fillColor=none;fontColor=default;" parent="1" vertex="1"><mxGeometry x="83" y="260" width="80" height="30" as="geometry"/></mxCell><mxCell id="20" value="" style="shape=umlFrame;whiteSpace=wrap;html=1;width=10;height=15;" parent="1" vertex="1"><mxGeometry x="79" y="521" width="380" height="189" as="geometry"/></mxCell><mxCell id="25" value="[else]" style="text;html=1;align=center;verticalAlign=middle;resizable=0;points=[];autosize=1;strokeColor=none;fillColor=none;fontColor=default;" parent="1" vertex="1"><mxGeometry x="85" y="530" width="40" height="20" as="geometry"/></mxCell><mxCell id="26" value="ref" style="shape=umlFrame;whiteSpace=wrap;html=1;labelBackgroundColor=default;fillColor=default;shadow=0;swimlaneFillColor=#7A7A7A;" parent="1" vertex="1"><mxGeometry x="116" y="640" width="286" height="30" as="geometry"/></mxCell><mxCell id="27" value="ResetBlankTileLetter" style="text;html=1;align=center;verticalAlign=middle;resizable=0;points=[];autosize=1;strokeColor=none;fillColor=none;fontColor=default;" parent="1" vertex="1"><mxGeometry x="220" y="645" width="130" height="20" as="geometry"/></mxCell><mxCell id="28" value="" style="html=1;points=[];perimeter=orthogonalPerimeter;" parent="1" vertex="1"><mxGeometry x="194" y="562" width="10" height="40" as="geometry"/></mxCell><mxCell id="29" value="notifyModelListeners(invalidPlacementEvent)" style="edgeStyle=orthogonalEdgeStyle;html=1;align=left;spacingLeft=2;endArrow=block;rounded=0;entryX=1;entryY=0;" parent="1" edge="1"><mxGeometry relative="1" as="geometry"><mxPoint x="200" y="542" as="sourcePoint"/><Array as="points"><mxPoint x="230" y="542"/></Array><mxPoint x="205" y="562" as="targetPoint"/></mxGeometry></mxCell><mxCell id="34" value=":Board" style="shape=umlLifeline;perimeter=lifelinePerimeter;whiteSpace=wrap;html=1;container=1;collapsible=0;recursiveResize=0;outlineConnect=0;" parent="1" vertex="1"><mxGeometry x="430" y="10" width="100" height="740" as="geometry"/></mxCell><mxCell id="38" value="" style="html=1;points=[];perimeter=orthogonalPerimeter;" parent="34" vertex="1"><mxGeometry x="45" y="260" width="10" height="30" as="geometry"/></mxCell><mxCell id="39" value="placeWord(modelPlaceEvent)" style="html=1;verticalAlign=bottom;endArrow=block;entryX=0;entryY=0;rounded=0;" parent="1" source="6" target="38" edge="1"><mxGeometry relative="1" as="geometry"><mxPoint x="630" y="240" as="sourcePoint"/></mxGeometry></mxCell><mxCell id="40" value="turnScore" style="html=1;verticalAlign=bottom;endArrow=open;dashed=1;endSize=8;exitX=0;exitY=0.95;rounded=0;" parent="1" source="38" target="6" edge="1"><mxGeometry relative="1" as="geometry"><mxPoint x="630" y="316" as="targetPoint"/></mxGeometry></mxCell><mxCell id="16" value="ref" style="shape=umlFrame;whiteSpace=wrap;html=1;labelBackgroundColor=default;fillColor=default;shadow=0;swimlaneFillColor=#7A7A7A;" parent="1" vertex="1"><mxGeometry x="125" y="197" width="375" height="30" as="geometry"/></mxCell><mxCell id="41" value="curPlayer:Player" style="shape=umlLifeline;perimeter=lifelinePerimeter;whiteSpace=wrap;html=1;container=1;collapsible=0;recursiveResize=0;outlineConnect=0;" parent="1" vertex="1"><mxGeometry x="540" y="10" width="100" height="740" as="geometry"/></mxCell><mxCell id="42" value="" style="html=1;points=[];perimeter=orthogonalPerimeter;" parent="41" vertex="1"><mxGeometry x="45" y="310" width="10" height="20" as="geometry"/></mxCell><mxCell id="54" value="" style="html=1;points=[];perimeter=orthogonalPerimeter;" vertex="1" parent="41"><mxGeometry x="45" y="420" width="10" height="20" as="geometry"/></mxCell><mxCell id="43" value="addPoints(turnScore)" style="html=1;verticalAlign=bottom;endArrow=block;rounded=0;" parent="1" target="42" edge="1"><mxGeometry x="0.0127" y="-20" relative="1" as="geometry"><mxPoint x="200" y="320" as="sourcePoint"/><mxPoint x="474" y="320" as="targetPoint"/><mxPoint as="offset"/></mxGeometry></mxCell><mxCell id="45" value="" style="html=1;points=[];perimeter=orthogonalPerimeter;" vertex="1" parent="1"><mxGeometry x="197" y="364" width="10" height="16" as="geometry"/></mxCell><mxCell id="46" value="notifyModelListeners(boardChangeEvent)" style="edgeStyle=orthogonalEdgeStyle;html=1;align=left;spacingLeft=2;endArrow=block;rounded=0;entryX=1;entryY=0;" edge="1" parent="1" target="45"><mxGeometry x="0.2257" relative="1" as="geometry"><mxPoint x="202" y="344" as="sourcePoint"/><Array as="points"><mxPoint x="232" y="344"/></Array><mxPoint as="offset"/></mxGeometry></mxCell><mxCell id="47" value="" style="html=1;points=[];perimeter=orthogonalPerimeter;" vertex="1" parent="1"><mxGeometry x="196" y="403" width="10" height="16" as="geometry"/></mxCell><mxCell id="48" value="notifyModelListeners(playerChangeEvent)" style="edgeStyle=orthogonalEdgeStyle;html=1;align=left;spacingLeft=2;endArrow=block;rounded=0;entryX=1;entryY=0;" edge="1" parent="1" target="47"><mxGeometry relative="1" as="geometry"><mxPoint x="201" y="383" as="sourcePoint"/><Array as="points"><mxPoint x="231" y="383"/></Array></mxGeometry></mxCell><mxCell id="52" value="EndGame" style="text;html=1;align=center;verticalAlign=middle;resizable=0;points=[];autosize=1;strokeColor=none;fillColor=none;fontColor=default;" vertex="1" parent="1"><mxGeometry x="290" y="456" width="70" height="20" as="geometry"/></mxCell><mxCell id="55" value="useTiles(selectedTiles)" style="html=1;verticalAlign=bottom;endArrow=block;rounded=0;" edge="1" parent="1"><mxGeometry x="0.0127" relative="1" as="geometry"><mxPoint x="200" y="430.6600000000001" as="sourcePoint"/><mxPoint x="594.9999999999998" y="430.6600000000001" as="targetPoint"/><mxPoint as="offset"/></mxGeometry></mxCell><mxCell id="57" value="opt" style="shape=umlFrame;whiteSpace=wrap;html=1;width=40;height=20;" vertex="1" parent="1"><mxGeometry x="109" y="610" width="300" height="70" as="geometry"/></mxCell><mxCell id="58" value="[usedTile was blank]" style="text;html=1;align=center;verticalAlign=middle;resizable=0;points=[];autosize=1;strokeColor=none;fillColor=none;" vertex="1" parent="1"><mxGeometry x="209" y="615" width="120" height="20" as="geometry"/></mxCell><mxCell id="59" value="BoardValidation" style="text;html=1;align=center;verticalAlign=middle;resizable=0;points=[];autosize=1;strokeColor=none;fillColor=none;" vertex="1" parent="1"><mxGeometry x="275" y="202" width="100" height="20" as="geometry"/></mxCell></root></mxGraphModel></diagram></mxfile>